<svg id="visual" viewBox="0 0 900 600" width="900" height="600" xmlns="http://www.w3.org/2000/svg" xmlns:xlink="http://www.w3.org/1999/xlink" version="1.1"><g stroke-width="1" stroke-linejoin="bevel"><path d="M437 291L509 370L538 314Z" fill="#313843" stroke="#313843"></path><path d="M629 363L569 267L538 314Z" fill="#383f49" stroke="#383f49"></path><path d="M538 314L569 267L437 291Z" fill="#2d343f" stroke="#2d343f"></path><path d="M437 291L406 415L509 370Z" fill="#363d47" stroke="#363d47"></path><path d="M569 267L481 172L437 291Z" fill="#383f49" stroke="#383f49"></path><path d="M569 267L574 202L481 172Z" fill="#252c38" stroke="#252c38"></path><path d="M529 479L629 363L509 370Z" fill="#252c38" stroke="#252c38"></path><path d="M509 370L629 363L538 314Z" fill="#252c38" stroke="#252c38"></path><path d="M569 267L683 260L574 202Z" fill="#363d47" stroke="#363d47"></path><path d="M406 415L529 479L509 370Z" fill="#2f3641" stroke="#2f3641"></path><path d="M481 172L370 202L437 291Z" fill="#313843" stroke="#313843"></path><path d="M437 291L281 306L406 415Z" fill="#363d47" stroke="#363d47"></path><path d="M574 202L483 132L481 172Z" fill="#29303c" stroke="#29303c"></path><path d="M481 172L412 102L370 202Z" fill="#29303c" stroke="#29303c"></path><path d="M370 202L281 306L437 291Z" fill="#272e3a" stroke="#272e3a"></path><path d="M629 363L683 260L569 267Z" fill="#363d47" stroke="#363d47"></path><path d="M574 202L582 83L483 132Z" fill="#333a45" stroke="#333a45"></path><path d="M529 479L591 513L629 363Z" fill="#2f3641" stroke="#2f3641"></path><path d="M629 363L725 413L683 260Z" fill="#252c38" stroke="#252c38"></path><path d="M521 600L591 513L529 479Z" fill="#2b323d" stroke="#2b323d"></path><path d="M483 132L412 102L481 172Z" fill="#252c38" stroke="#252c38"></path><path d="M370 202L284 187L281 306Z" fill="#3a414b" stroke="#3a414b"></path><path d="M281 306L266 422L406 415Z" fill="#2f3641" stroke="#2f3641"></path><path d="M406 415L367 531L529 479Z" fill="#363d47" stroke="#363d47"></path><path d="M266 422L367 531L406 415Z" fill="#2f3641" stroke="#2f3641"></path><path d="M278 122L284 187L370 202Z" fill="#2f3641" stroke="#2f3641"></path><path d="M281 306L175 377L266 422Z" fill="#3a414b" stroke="#3a414b"></path><path d="M284 187L232 286L281 306Z" fill="#333a45" stroke="#333a45"></path><path d="M660 87L582 83L574 202Z" fill="#2b323d" stroke="#2b323d"></path><path d="M483 132L523 0L412 102Z" fill="#363d47" stroke="#363d47"></path><path d="M720 485L725 413L629 363Z" fill="#3a414b" stroke="#3a414b"></path><path d="M781 232L713 181L683 260Z" fill="#383f49" stroke="#383f49"></path><path d="M683 260L713 181L574 202Z" fill="#2f3641" stroke="#2f3641"></path><path d="M266 422L302 532L367 531Z" fill="#3a414b" stroke="#3a414b"></path><path d="M431 600L529 479L367 531Z" fill="#363d47" stroke="#363d47"></path><path d="M431 600L521 600L529 479Z" fill="#383f49" stroke="#383f49"></path><path d="M591 513L720 485L629 363Z" fill="#333a45" stroke="#333a45"></path><path d="M330 600L431 600L367 531Z" fill="#29303c" stroke="#29303c"></path><path d="M412 102L278 122L370 202Z" fill="#2b323d" stroke="#2b323d"></path><path d="M284 187L191 223L232 286Z" fill="#3a414b" stroke="#3a414b"></path><path d="M703 600L720 485L591 513Z" fill="#333a45" stroke="#333a45"></path><path d="M713 181L660 87L574 202Z" fill="#333a45" stroke="#333a45"></path><path d="M521 600L587 600L591 513Z" fill="#363d47" stroke="#363d47"></path><path d="M278 122L191 223L284 187Z" fill="#29303c" stroke="#29303c"></path><path d="M232 286L175 377L281 306Z" fill="#2b323d" stroke="#2b323d"></path><path d="M266 422L185 496L302 532Z" fill="#252c38" stroke="#252c38"></path><path d="M823 270L781 232L683 260Z" fill="#2b323d" stroke="#2b323d"></path><path d="M713 181L818 132L660 87Z" fill="#2d343f" stroke="#2d343f"></path><path d="M823 270L683 260L725 413Z" fill="#3a414b" stroke="#3a414b"></path><path d="M80 279L175 377L232 286Z" fill="#333a45" stroke="#333a45"></path><path d="M208 600L330 600L302 532Z" fill="#383f49" stroke="#383f49"></path><path d="M302 532L330 600L367 531Z" fill="#3a414b" stroke="#3a414b"></path><path d="M601 0L523 0L582 83Z" fill="#363d47" stroke="#363d47"></path><path d="M582 83L523 0L483 132Z" fill="#383f49" stroke="#383f49"></path><path d="M412 102L364 0L278 122Z" fill="#313843" stroke="#313843"></path><path d="M660 87L601 0L582 83Z" fill="#333a45" stroke="#333a45"></path><path d="M737 0L601 0L660 87Z" fill="#272e3a" stroke="#272e3a"></path><path d="M523 0L364 0L412 102Z" fill="#383f49" stroke="#383f49"></path><path d="M278 122L177 84L191 223Z" fill="#252c38" stroke="#252c38"></path><path d="M838 415L823 270L725 413Z" fill="#252c38" stroke="#252c38"></path><path d="M781 232L818 132L713 181Z" fill="#29303c" stroke="#29303c"></path><path d="M175 377L185 496L266 422Z" fill="#2b323d" stroke="#2b323d"></path><path d="M587 600L703 600L591 513Z" fill="#333a45" stroke="#333a45"></path><path d="M720 485L838 415L725 413Z" fill="#272e3a" stroke="#272e3a"></path><path d="M832 512L838 415L720 485Z" fill="#383f49" stroke="#383f49"></path><path d="M364 0L283 0L278 122Z" fill="#383f49" stroke="#383f49"></path><path d="M900 216L781 232L823 270Z" fill="#333a45" stroke="#333a45"></path><path d="M900 216L818 132L781 232Z" fill="#272e3a" stroke="#272e3a"></path><path d="M283 0L177 84L278 122Z" fill="#363d47" stroke="#363d47"></path><path d="M80 279L108 419L175 377Z" fill="#29303c" stroke="#29303c"></path><path d="M80 279L232 286L191 223Z" fill="#252c38" stroke="#252c38"></path><path d="M175 377L108 419L185 496Z" fill="#272e3a" stroke="#272e3a"></path><path d="M185 496L208 600L302 532Z" fill="#313843" stroke="#313843"></path><path d="M111 490L208 600L185 496Z" fill="#272e3a" stroke="#272e3a"></path><path d="M789 600L832 512L720 485Z" fill="#2f3641" stroke="#2f3641"></path><path d="M80 181L80 279L191 223Z" fill="#272e3a" stroke="#272e3a"></path><path d="M0 427L111 490L108 419Z" fill="#29303c" stroke="#29303c"></path><path d="M108 419L111 490L185 496Z" fill="#363d47" stroke="#363d47"></path><path d="M818 132L737 0L660 87Z" fill="#333a45" stroke="#333a45"></path><path d="M703 600L789 600L720 485Z" fill="#333a45" stroke="#333a45"></path><path d="M900 414L900 303L838 415Z" fill="#252c38" stroke="#252c38"></path><path d="M838 415L900 303L823 270Z" fill="#252c38" stroke="#252c38"></path><path d="M177 84L80 181L191 223Z" fill="#2f3641" stroke="#2f3641"></path><path d="M900 494L900 414L838 415Z" fill="#383f49" stroke="#383f49"></path><path d="M900 494L838 415L832 512Z" fill="#29303c" stroke="#29303c"></path><path d="M900 303L900 216L823 270Z" fill="#313843" stroke="#313843"></path><path d="M818 132L823 0L737 0Z" fill="#2f3641" stroke="#2f3641"></path><path d="M900 600L900 494L832 512Z" fill="#2d343f" stroke="#2d343f"></path><path d="M283 0L161 0L177 84Z" fill="#2d343f" stroke="#2d343f"></path><path d="M177 84L83 101L80 181Z" fill="#363d47" stroke="#363d47"></path><path d="M97 0L83 101L177 84Z" fill="#252c38" stroke="#252c38"></path><path d="M900 216L900 131L818 132Z" fill="#2b323d" stroke="#2b323d"></path><path d="M900 131L823 0L818 132Z" fill="#333a45" stroke="#333a45"></path><path d="M0 164L0 274L80 181Z" fill="#272e3a" stroke="#272e3a"></path><path d="M80 181L0 274L80 279Z" fill="#333a45" stroke="#333a45"></path><path d="M80 279L0 427L108 419Z" fill="#333a45" stroke="#333a45"></path><path d="M0 274L0 427L80 279Z" fill="#333a45" stroke="#333a45"></path><path d="M111 490L74 600L208 600Z" fill="#383f49" stroke="#383f49"></path><path d="M0 512L74 600L111 490Z" fill="#272e3a" stroke="#272e3a"></path><path d="M789 600L900 600L832 512Z" fill="#3a414b" stroke="#3a414b"></path><path d="M161 0L97 0L177 84Z" fill="#29303c" stroke="#29303c"></path><path d="M83 101L0 164L80 181Z" fill="#2f3641" stroke="#2f3641"></path><path d="M0 75L0 164L83 101Z" fill="#252c38" stroke="#252c38"></path><path d="M0 427L0 512L111 490Z" fill="#333a45" stroke="#333a45"></path><path d="M900 131L900 0L823 0Z" fill="#3a414b" stroke="#3a414b"></path><path d="M97 0L0 75L83 101Z" fill="#3a414b" stroke="#3a414b"></path><path d="M0 512L0 600L74 600Z" fill="#2f3641" stroke="#2f3641"></path><path d="M97 0L0 0L0 75Z" fill="#29303c" stroke="#29303c"></path></g></svg>