<svg id="visual" viewBox="0 0 900 600" width="900" height="600" xmlns="http://www.w3.org/2000/svg" xmlns:xlink="http://www.w3.org/1999/xlink" version="1.1"><g stroke-width="1" stroke-linejoin="bevel"><path d="M464 282L500 347L525 287Z" fill="#363d47" stroke="#363d47"></path><path d="M609 354L583 274L525 287Z" fill="#29303c" stroke="#29303c"></path><path d="M509 205L472 209L464 282Z" fill="#29303c" stroke="#29303c"></path><path d="M509 205L464 282L525 287Z" fill="#29303c" stroke="#29303c"></path><path d="M583 274L509 205L525 287Z" fill="#2f3641" stroke="#2f3641"></path><path d="M382 272L400 360L464 282Z" fill="#363d47" stroke="#363d47"></path><path d="M464 282L400 360L500 347Z" fill="#2f3641" stroke="#2f3641"></path><path d="M400 360L433 402L500 347Z" fill="#313843" stroke="#313843"></path><path d="M472 209L382 272L464 282Z" fill="#313843" stroke="#313843"></path><path d="M534 430L609 354L500 347Z" fill="#2f3641" stroke="#2f3641"></path><path d="M500 347L609 354L525 287Z" fill="#383f49" stroke="#383f49"></path><path d="M475 441L534 430L500 347Z" fill="#29303c" stroke="#29303c"></path><path d="M433 402L475 441L500 347Z" fill="#3a414b" stroke="#3a414b"></path><path d="M622 241L511 170L509 205Z" fill="#333a45" stroke="#333a45"></path><path d="M509 205L511 170L472 209Z" fill="#3a414b" stroke="#3a414b"></path><path d="M472 209L444 175L382 272Z" fill="#2b323d" stroke="#2b323d"></path><path d="M511 170L444 175L472 209Z" fill="#383f49" stroke="#383f49"></path><path d="M694 301L622 241L583 274Z" fill="#29303c" stroke="#29303c"></path><path d="M583 274L622 241L509 205Z" fill="#252c38" stroke="#252c38"></path><path d="M444 175L356 215L382 272Z" fill="#2d343f" stroke="#2d343f"></path><path d="M382 272L321 375L400 360Z" fill="#2f3641" stroke="#2f3641"></path><path d="M444 175L381 175L356 215Z" fill="#313843" stroke="#313843"></path><path d="M426 56L381 175L444 175Z" fill="#252c38" stroke="#252c38"></path><path d="M534 430L612 444L609 354Z" fill="#29303c" stroke="#29303c"></path><path d="M609 354L694 301L583 274Z" fill="#252c38" stroke="#252c38"></path><path d="M612 527L612 444L534 430Z" fill="#29303c" stroke="#29303c"></path><path d="M291 306L321 375L382 272Z" fill="#383f49" stroke="#383f49"></path><path d="M400 360L359 475L433 402Z" fill="#2f3641" stroke="#2f3641"></path><path d="M433 402L359 475L475 441Z" fill="#2d343f" stroke="#2d343f"></path><path d="M612 444L647 425L609 354Z" fill="#3a414b" stroke="#3a414b"></path><path d="M647 425L679 373L609 354Z" fill="#2d343f" stroke="#2d343f"></path><path d="M694 301L675 229L622 241Z" fill="#2d343f" stroke="#2d343f"></path><path d="M622 241L615 126L511 170Z" fill="#29303c" stroke="#29303c"></path><path d="M278 242L382 272L356 215Z" fill="#383f49" stroke="#383f49"></path><path d="M278 242L291 306L382 272Z" fill="#383f49" stroke="#383f49"></path><path d="M679 373L694 301L609 354Z" fill="#2f3641" stroke="#2f3641"></path><path d="M284 447L359 475L321 375Z" fill="#2d343f" stroke="#2d343f"></path><path d="M321 375L359 475L400 360Z" fill="#313843" stroke="#313843"></path><path d="M475 441L507 526L534 430Z" fill="#252c38" stroke="#252c38"></path><path d="M454 548L507 526L475 441Z" fill="#2d343f" stroke="#2d343f"></path><path d="M612 444L648 513L647 425Z" fill="#2b323d" stroke="#2b323d"></path><path d="M675 229L615 126L622 241Z" fill="#363d47" stroke="#363d47"></path><path d="M511 170L507 66L444 175Z" fill="#2b323d" stroke="#2b323d"></path><path d="M296 125L278 242L356 215Z" fill="#252c38" stroke="#252c38"></path><path d="M359 475L454 548L475 441Z" fill="#2b323d" stroke="#2b323d"></path><path d="M681 63L596 89L615 126Z" fill="#2f3641" stroke="#2f3641"></path><path d="M615 126L596 89L511 170Z" fill="#333a45" stroke="#333a45"></path><path d="M596 89L507 66L511 170Z" fill="#3a414b" stroke="#3a414b"></path><path d="M381 175L296 125L356 215Z" fill="#3a414b" stroke="#3a414b"></path><path d="M539 600L612 527L507 526Z" fill="#3a414b" stroke="#3a414b"></path><path d="M507 526L612 527L534 430Z" fill="#2b323d" stroke="#2b323d"></path><path d="M775 429L753 379L679 373Z" fill="#272e3a" stroke="#272e3a"></path><path d="M202 354L284 447L321 375Z" fill="#3a414b" stroke="#3a414b"></path><path d="M359 475L349 550L454 548Z" fill="#383f49" stroke="#383f49"></path><path d="M202 354L321 375L291 306Z" fill="#2b323d" stroke="#2b323d"></path><path d="M612 527L648 513L612 444Z" fill="#252c38" stroke="#252c38"></path><path d="M507 66L426 56L444 175Z" fill="#2b323d" stroke="#2b323d"></path><path d="M731 134L684 128L675 229Z" fill="#2b323d" stroke="#2b323d"></path><path d="M675 229L684 128L615 126Z" fill="#252c38" stroke="#252c38"></path><path d="M694 301L750 244L675 229Z" fill="#272e3a" stroke="#272e3a"></path><path d="M772 313L750 244L694 301Z" fill="#2d343f" stroke="#2d343f"></path><path d="M753 379L694 301L679 373Z" fill="#252c38" stroke="#252c38"></path><path d="M284 447L306 501L359 475Z" fill="#3a414b" stroke="#3a414b"></path><path d="M374 64L296 125L381 175Z" fill="#363d47" stroke="#363d47"></path><path d="M775 429L679 373L647 425Z" fill="#3a414b" stroke="#3a414b"></path><path d="M426 56L374 64L381 175Z" fill="#363d47" stroke="#363d47"></path><path d="M218 232L216 283L278 242Z" fill="#29303c" stroke="#29303c"></path><path d="M278 242L216 283L291 306Z" fill="#313843" stroke="#313843"></path><path d="M284 447L204 539L306 501Z" fill="#29303c" stroke="#29303c"></path><path d="M753 379L772 313L694 301Z" fill="#2b323d" stroke="#2b323d"></path><path d="M306 501L349 550L359 475Z" fill="#272e3a" stroke="#272e3a"></path><path d="M208 168L218 232L278 242Z" fill="#29303c" stroke="#29303c"></path><path d="M397 600L464 600L454 548Z" fill="#2f3641" stroke="#2f3641"></path><path d="M454 548L464 600L507 526Z" fill="#2f3641" stroke="#2f3641"></path><path d="M612 527L666 600L648 513Z" fill="#363d47" stroke="#363d47"></path><path d="M170 359L202 354L142 306Z" fill="#333a45" stroke="#333a45"></path><path d="M216 283L202 354L291 306Z" fill="#313843" stroke="#313843"></path><path d="M464 600L539 600L507 526Z" fill="#383f49" stroke="#383f49"></path><path d="M817 171L731 134L750 244Z" fill="#363d47" stroke="#363d47"></path><path d="M750 244L731 134L675 229Z" fill="#313843" stroke="#313843"></path><path d="M684 128L681 63L615 126Z" fill="#363d47" stroke="#363d47"></path><path d="M349 550L397 600L454 548Z" fill="#363d47" stroke="#363d47"></path><path d="M648 513L775 429L647 425Z" fill="#363d47" stroke="#363d47"></path><path d="M753 379L802 376L772 313Z" fill="#363d47" stroke="#363d47"></path><path d="M757 542L775 429L648 513Z" fill="#3a414b" stroke="#3a414b"></path><path d="M507 66L446 0L426 56Z" fill="#2b323d" stroke="#2b323d"></path><path d="M426 56L396 0L374 64Z" fill="#2d343f" stroke="#2d343f"></path><path d="M572 0L497 0L507 66Z" fill="#252c38" stroke="#252c38"></path><path d="M572 0L507 66L596 89Z" fill="#2b323d" stroke="#2b323d"></path><path d="M731 134L681 63L684 128Z" fill="#2d343f" stroke="#2d343f"></path><path d="M497 0L446 0L507 66Z" fill="#333a45" stroke="#333a45"></path><path d="M174 127L208 168L296 125Z" fill="#333a45" stroke="#333a45"></path><path d="M775 429L802 376L753 379Z" fill="#2d343f" stroke="#2d343f"></path><path d="M772 313L823 304L750 244Z" fill="#2d343f" stroke="#2d343f"></path><path d="M539 600L618 600L612 527Z" fill="#272e3a" stroke="#272e3a"></path><path d="M296 125L208 168L278 242Z" fill="#3a414b" stroke="#3a414b"></path><path d="M142 306L202 354L216 283Z" fill="#383f49" stroke="#383f49"></path><path d="M294 55L296 125L374 64Z" fill="#252c38" stroke="#252c38"></path><path d="M681 63L572 0L596 89Z" fill="#2d343f" stroke="#2d343f"></path><path d="M298 0L294 55L374 64Z" fill="#29303c" stroke="#29303c"></path><path d="M446 0L396 0L426 56Z" fill="#2f3641" stroke="#2f3641"></path><path d="M202 354L201 452L284 447Z" fill="#29303c" stroke="#29303c"></path><path d="M306 501L316 600L349 550Z" fill="#333a45" stroke="#333a45"></path><path d="M349 550L316 600L397 600Z" fill="#252c38" stroke="#252c38"></path><path d="M159 244L216 283L218 232Z" fill="#2b323d" stroke="#2b323d"></path><path d="M202 354L170 359L201 452Z" fill="#252c38" stroke="#252c38"></path><path d="M802 376L823 304L772 313Z" fill="#272e3a" stroke="#272e3a"></path><path d="M618 600L666 600L612 527Z" fill="#333a45" stroke="#333a45"></path><path d="M208 168L159 244L218 232Z" fill="#363d47" stroke="#363d47"></path><path d="M204 539L316 600L306 501Z" fill="#29303c" stroke="#29303c"></path><path d="M159 244L142 306L216 283Z" fill="#252c38" stroke="#252c38"></path><path d="M135 515L204 539L201 452Z" fill="#363d47" stroke="#363d47"></path><path d="M834 198L817 171L750 244Z" fill="#333a45" stroke="#333a45"></path><path d="M731 134L771 87L681 63Z" fill="#2b323d" stroke="#2b323d"></path><path d="M666 600L757 542L648 513Z" fill="#333a45" stroke="#333a45"></path><path d="M775 429L829 434L802 376Z" fill="#2f3641" stroke="#2f3641"></path><path d="M900 400L900 282L823 304Z" fill="#3a414b" stroke="#3a414b"></path><path d="M807 99L771 87L731 134Z" fill="#313843" stroke="#313843"></path><path d="M681 63L690 0L572 0Z" fill="#2b323d" stroke="#2b323d"></path><path d="M823 304L834 198L750 244Z" fill="#252c38" stroke="#252c38"></path><path d="M817 171L807 99L731 134Z" fill="#2d343f" stroke="#2d343f"></path><path d="M815 498L829 434L775 429Z" fill="#3a414b" stroke="#3a414b"></path><path d="M823 304L900 252L834 198Z" fill="#313843" stroke="#313843"></path><path d="M396 0L298 0L374 64Z" fill="#3a414b" stroke="#3a414b"></path><path d="M212 49L174 127L296 125Z" fill="#333a45" stroke="#333a45"></path><path d="M208 168L174 127L159 244Z" fill="#2b323d" stroke="#2b323d"></path><path d="M725 0L690 0L681 63Z" fill="#29303c" stroke="#29303c"></path><path d="M212 49L296 125L294 55Z" fill="#383f49" stroke="#383f49"></path><path d="M72 249L101 311L142 306Z" fill="#3a414b" stroke="#3a414b"></path><path d="M201 452L204 539L284 447Z" fill="#272e3a" stroke="#272e3a"></path><path d="M152 456L201 452L170 359Z" fill="#313843" stroke="#313843"></path><path d="M102 375L152 456L170 359Z" fill="#272e3a" stroke="#272e3a"></path><path d="M757 542L815 498L775 429Z" fill="#363d47" stroke="#363d47"></path><path d="M900 166L807 99L817 171Z" fill="#313843" stroke="#313843"></path><path d="M771 87L725 0L681 63Z" fill="#2d343f" stroke="#2d343f"></path><path d="M235 0L212 49L294 55Z" fill="#2b323d" stroke="#2b323d"></path><path d="M799 0L725 0L771 87Z" fill="#333a45" stroke="#333a45"></path><path d="M142 306L102 375L170 359Z" fill="#313843" stroke="#313843"></path><path d="M72 249L142 306L159 244Z" fill="#2d343f" stroke="#2d343f"></path><path d="M212 49L176 73L174 127Z" fill="#29303c" stroke="#29303c"></path><path d="M71 144L72 249L159 244Z" fill="#3a414b" stroke="#3a414b"></path><path d="M101 311L102 375L142 306Z" fill="#2f3641" stroke="#2f3641"></path><path d="M666 600L766 600L757 542Z" fill="#29303c" stroke="#29303c"></path><path d="M757 542L804 600L815 498Z" fill="#252c38" stroke="#252c38"></path><path d="M298 0L235 0L294 55Z" fill="#2b323d" stroke="#2b323d"></path><path d="M212 49L146 0L176 73Z" fill="#363d47" stroke="#363d47"></path><path d="M900 400L802 376L829 434Z" fill="#252c38" stroke="#252c38"></path><path d="M900 400L823 304L802 376Z" fill="#29303c" stroke="#29303c"></path><path d="M834 198L900 166L817 171Z" fill="#272e3a" stroke="#272e3a"></path><path d="M173 600L204 600L204 539Z" fill="#29303c" stroke="#29303c"></path><path d="M204 539L204 600L316 600Z" fill="#2f3641" stroke="#2f3641"></path><path d="M135 515L201 452L152 456Z" fill="#29303c" stroke="#29303c"></path><path d="M900 282L900 252L823 304Z" fill="#2d343f" stroke="#2d343f"></path><path d="M63 499L135 515L152 456Z" fill="#2b323d" stroke="#2b323d"></path><path d="M900 434L829 434L900 497Z" fill="#2b323d" stroke="#2b323d"></path><path d="M900 434L900 400L829 434Z" fill="#383f49" stroke="#383f49"></path><path d="M71 144L159 244L174 127Z" fill="#252c38" stroke="#252c38"></path><path d="M0 359L75 433L102 375Z" fill="#2f3641" stroke="#2f3641"></path><path d="M102 375L75 433L152 456Z" fill="#383f49" stroke="#383f49"></path><path d="M900 497L829 434L815 498Z" fill="#252c38" stroke="#252c38"></path><path d="M766 600L804 600L757 542Z" fill="#272e3a" stroke="#272e3a"></path><path d="M900 252L900 166L834 198Z" fill="#2d343f" stroke="#2d343f"></path><path d="M807 99L799 0L771 87Z" fill="#2b323d" stroke="#2b323d"></path><path d="M135 515L173 600L204 539Z" fill="#2d343f" stroke="#2d343f"></path><path d="M900 50L799 0L807 99Z" fill="#2f3641" stroke="#2f3641"></path><path d="M0 359L102 375L101 311Z" fill="#383f49" stroke="#383f49"></path><path d="M135 515L59 600L173 600Z" fill="#3a414b" stroke="#3a414b"></path><path d="M900 600L900 497L815 498Z" fill="#29303c" stroke="#29303c"></path><path d="M91 95L71 144L174 127Z" fill="#2f3641" stroke="#2f3641"></path><path d="M91 95L174 127L176 73Z" fill="#313843" stroke="#313843"></path><path d="M146 0L91 95L176 73Z" fill="#363d47" stroke="#363d47"></path><path d="M235 0L146 0L212 49Z" fill="#3a414b" stroke="#3a414b"></path><path d="M0 456L63 499L75 433Z" fill="#29303c" stroke="#29303c"></path><path d="M75 433L63 499L152 456Z" fill="#333a45" stroke="#333a45"></path><path d="M0 288L101 311L72 249Z" fill="#383f49" stroke="#383f49"></path><path d="M900 166L900 50L807 99Z" fill="#363d47" stroke="#363d47"></path><path d="M0 220L72 249L71 144Z" fill="#2b323d" stroke="#2b323d"></path><path d="M0 220L0 288L72 249Z" fill="#313843" stroke="#313843"></path><path d="M0 288L0 359L101 311Z" fill="#383f49" stroke="#383f49"></path><path d="M0 131L0 220L71 144Z" fill="#2b323d" stroke="#2b323d"></path><path d="M0 131L71 144L91 95Z" fill="#383f49" stroke="#383f49"></path><path d="M804 600L900 600L815 498Z" fill="#383f49" stroke="#383f49"></path><path d="M900 50L900 0L799 0Z" fill="#2f3641" stroke="#2f3641"></path><path d="M0 359L0 456L75 433Z" fill="#2d343f" stroke="#2d343f"></path><path d="M63 499L59 600L135 515Z" fill="#272e3a" stroke="#272e3a"></path><path d="M146 0L72 0L91 95Z" fill="#333a45" stroke="#333a45"></path><path d="M0 539L59 600L63 499Z" fill="#2f3641" stroke="#2f3641"></path><path d="M0 65L0 131L91 95Z" fill="#252c38" stroke="#252c38"></path><path d="M0 456L0 539L63 499Z" fill="#2f3641" stroke="#2f3641"></path><path d="M72 0L0 65L91 95Z" fill="#363d47" stroke="#363d47"></path><path d="M0 539L0 600L59 600Z" fill="#272e3a" stroke="#272e3a"></path><path d="M72 0L0 0L0 65Z" fill="#333a45" stroke="#333a45"></path></g></svg>