<svg id="visual" viewBox="0 0 900 600" width="900" height="600" xmlns="http://www.w3.org/2000/svg" xmlns:xlink="http://www.w3.org/1999/xlink" version="1.1"><path d="M0 151L30 172C60 193 120 235 180 236C240 237 300 197 360 194C420 191 480 225 540 231C600 237 660 215 720 210C780 205 840 217 870 223L900 229L900 0L870 0C840 0 780 0 720 0C660 0 600 0 540 0C480 0 420 0 360 0C300 0 240 0 180 0C120 0 60 0 30 0L0 0Z" fill="#1d222a"></path><path d="M0 253L30 270C60 287 120 321 180 315C240 309 300 263 360 256C420 249 480 281 540 291C600 301 660 289 720 282C780 275 840 273 870 272L900 271L900 227L870 221C840 215 780 203 720 208C660 213 600 235 540 229C480 223 420 189 360 192C300 195 240 235 180 234C120 233 60 191 30 170L0 149Z" fill="#202630"></path><path d="M0 307L30 325C60 343 120 379 180 379C240 379 300 343 360 333C420 323 480 339 540 341C600 343 660 331 720 323C780 315 840 311 870 309L900 307L900 269L870 270C840 271 780 273 720 280C660 287 600 299 540 289C480 279 420 247 360 254C300 261 240 307 180 313C120 319 60 285 30 268L0 251Z" fill="#232a35"></path><path d="M0 391L30 401C60 411 120 431 180 431C240 431 300 411 360 404C420 397 480 403 540 396C600 389 660 369 720 364C780 359 840 369 870 374L900 379L900 305L870 307C840 309 780 313 720 321C660 329 600 341 540 339C480 337 420 321 360 331C300 341 240 377 180 377C120 377 60 341 30 323L0 305Z" fill="#2b3340"></path><path d="M0 553L30 553C60 553 120 553 180 550C240 547 300 541 360 537C420 533 480 531 540 533C600 535 660 541 720 536C780 531 840 515 870 507L900 499L900 377L870 372C840 367 780 357 720 362C660 367 600 387 540 394C480 401 420 395 360 402C300 409 240 429 180 429C120 429 60 409 30 399L0 389Z" fill="#38414f"></path><path d="M0 601L30 601C60 601 120 601 180 601C240 601 300 601 360 601C420 601 480 601 540 601C600 601 660 601 720 601C780 601 840 601 870 601L900 601L900 497L870 505C840 513 780 529 720 534C660 539 600 533 540 531C480 529 420 531 360 535C300 539 240 545 180 548C120 551 60 551 30 551L0 551Z" fill="#464f5f"></path></svg>